<?xml version="1.0" encoding="UTF-8" standalone="no"?>
<svg
   xmlns:dc="http://purl.org/dc/elements/1.1/"
   xmlns:cc="http://creativecommons.org/ns#"
   xmlns:rdf="http://www.w3.org/1999/02/22-rdf-syntax-ns#"
   xmlns:svg="http://www.w3.org/2000/svg"
   xmlns="http://www.w3.org/2000/svg"
   xmlns:sodipodi="http://sodipodi.sourceforge.net/DTD/sodipodi-0.dtd"
   xmlns:inkscape="http://www.inkscape.org/namespaces/inkscape"
   inkscape:version="1.0 (4035a4fb49, 2020-05-01)"
   version="1.1"
   viewBox="0 0 64 64"
   sodipodi:docname="pinR_.svg"
   id="svg3873"><metadata
   id="metadata32">
  <rdf:RDF>
    <cc:Work
       rdf:about="">
      <dc:format>image/svg+xml</dc:format>
      <dc:type
         rdf:resource="http://purl.org/dc/dcmitype/StillImage" />
      <dc:title>map pin</dc:title>
    </cc:Work>
  </rdf:RDF>
</metadata>
<defs
   id="defs30" />
<sodipodi:namedview
   inkscape:current-layer="svg3873"
   inkscape:window-maximized="1"
   inkscape:window-y="-8"
   inkscape:window-x="-8"
   inkscape:cy="38.007594"
   inkscape:cx="44.32419"
   inkscape:zoom="4.5299028"
   showborder="false"
   inkscape:pagecheckerboard="true"
   showgrid="false"
   id="namedview28"
   inkscape:window-height="987"
   inkscape:window-width="1680"
   inkscape:pageshadow="2"
   inkscape:pageopacity="0"
   guidetolerance="10"
   gridtolerance="10"
   objecttolerance="10"
   borderopacity="1"
   bordercolor="#666666"
   pagecolor="#ffffff" />
<title
   id="title2993">map pin</title>
<g
   transform="matrix(0.24696206,0,0,0.23533874,278.76029,-225.01605)"
   id="g3841">
  <path
     style="fill:#f41922;stroke:#5a0000;stroke-width:5.7"
     d="m -995.72,1225.8 c -0.2729,-0.7794 -1.645,-6.0275 -3.049,-11.662 -4.441,-17.823 -12.122,-36.988 -22.546,-56.255 -5.9844,-11.061 -7.0667,-12.824 -24.551,-40 -28.252,-43.911 -33.217,-56.241 -32.173,-79.89 0.9573,-21.672 8.2717,-37.909 24.149,-53.61 13.179,-13.032 27.807,-20.549 45.601,-23.432 44.097,-7.1446 86.878,21.883 95.546,64.828 2.0208,10.012 1.5723,27.243 -0.95271,36.604 -2.77,10.269 -13.883,31.045 -29.589,55.315 -28.348,43.807 -39.082,65.687 -47.119,96.05 -3.1117,11.755 -4.3985,14.673 -5.3161,12.052 z"
     id="path3047" />
</g>

  &gt;
  &gt;
</svg>
